<?xml version="1.0" standalone="no"?>
<!DOCTYPE svg PUBLIC "-//W3C//DTD SVG 20010904//EN"
 "http://www.w3.org/TR/2001/REC-SVG-20010904/DTD/svg10.dtd">
<svg version="1.0" xmlns="http://www.w3.org/2000/svg"
 width="260.000000pt" height="260.000000pt" viewBox="0 0 260.000000 260.000000"
 preserveAspectRatio="xMidYMid meet">
<metadata>
Created by potrace 1.11, written by Peter Selinger 2001-2013
</metadata>
<g transform="translate(0.000000,260.000000) scale(0.100000,-0.100000)"
fill="#000000" stroke="none">
<path d="M0 1856 c0 -701 1 -745 18 -749 16 -4 16 -5 0 -6 -17 -1 -18 -34 -18
-551 l0 -550 1300 0 1300 0 0 84 c0 58 -4 86 -12 89 -10 4 -10 6 0 6 9 1 12
250 12 1211 l0 1210 -1300 0 -1300 0 0 -744z m870 677 c34 -10 -18 -22 -74
-16 -57 6 -58 6 -30 18 27 11 65 11 104 -2z m-144 -6 c4 -4 -29 -7 -74 -7 -44
0 -83 3 -86 8 -6 10 150 9 160 -1z m-258 -4 c-15 -2 -42 -2 -60 0 -18 2 -6 4
27 4 33 0 48 -2 33 -4z m449 1 c-3 -3 -12 -4 -19 -1 -8 3 -5 6 6 6 11 1 17 -2
13 -5z m1353 -1219 l0 -825 -950 0 -950 0 0 825 0 825 950 0 950 0 0 -825z
m137 -101 c-3 -3 -12 -4 -19 -1 -8 3 -5 6 6 6 11 1 17 -2 13 -5z m-2340 -100
c-3 -3 -12 -4 -19 -1 -8 3 -5 6 6 6 11 1 17 -2 13 -5z m165 -11 c-23 -2 -61
-2 -85 0 -23 2 -4 4 43 4 47 0 66 -2 42 -4z m85 1 c-3 -3 -12 -4 -19 -1 -8 3
-5 6 6 6 11 1 17 -2 13 -5z"/>
<path d="M420 1566 l0 -515 33 -4 32 -4 -32 -1 -32 -2 -1 -255 -1 -255 901 0
900 0 0 775 0 775 -900 0 -900 0 0 -514z m788 -148 c45 -145 87 -284 94 -310
7 -27 15 -48 18 -48 4 0 12 24 19 53 8 28 45 151 83 272 39 121 74 237 80 258
l10 37 90 0 c68 0 89 -3 86 -12 -3 -7 -65 -192 -138 -410 l-133 -398 -97 0
-96 0 -134 397 c-73 219 -135 404 -138 411 -3 9 18 12 85 12 l90 0 81 -262z
m-665 -335 c-18 -2 -48 -2 -65 0 -18 2 -4 4 32 4 36 0 50 -2 33 -4z m125 0
c-16 -2 -40 -2 -55 0 -16 2 -3 4 27 4 30 0 43 -2 28 -4z m-153 -33 c3 -5 1
-10 -4 -10 -6 0 -11 5 -11 10 0 6 2 10 4 10 3 0 8 -4 11 -10z m210 0 c-3 -5
-27 -9 -53 -9 -46 2 -46 2 -12 9 53 11 72 11 65 0z m-242 -27 c-7 -2 -19 -2
-25 0 -7 3 -2 5 12 5 14 0 19 -2 13 -5z"/>
</g>
</svg>
